<svg width="82" height="82" viewBox="0 0 82 82" fill="none" xmlns="http://www.w3.org/2000/svg">
<path d="M53.5904 15.9387V19.164L49.0514 21.7743V16.3145C49.0532 14.3351 48.2689 12.4361 46.8708 11.0349C45.4728 9.63364 43.5756 8.84497 41.5962 8.84225H40.4192C39.438 8.84225 38.4664 9.03554 37.5599 9.41108C36.6534 9.78661 35.8298 10.337 35.1361 11.0309C34.4424 11.7248 33.8921 12.5486 33.5168 13.4551C33.1415 14.3617 32.9484 15.3333 32.9486 16.3145V35.0293C32.9486 35.9005 32.4874 36.7018 31.7186 37.1442L25.0339 40.9999L20.4624 38.3554L26.5014 34.8755C27.0817 34.5397 27.5637 34.0572 27.8989 33.4764C28.2341 32.8957 28.4108 32.2371 28.4113 31.5665V15.9558C28.4131 12.8573 29.6448 9.88618 31.8358 7.69521C34.0267 5.50424 36.9978 4.27256 40.0963 4.27075H41.9242C43.4567 4.27008 44.9742 4.57142 46.3901 5.15755C47.806 5.74368 49.0926 6.6031 50.1762 7.6867C51.2598 8.77031 52.1192 10.0568 52.7053 11.4728C53.2915 12.8887 53.5911 14.4062 53.5904 15.9387ZM49.0514 55.0407V60.2255L42.9099 56.6773C42.3263 56.3508 41.6687 56.1794 41 56.1794C40.3313 56.1794 39.6737 56.3508 39.0901 56.6773L32.9486 60.2255L28.4096 62.8358L25.5789 64.4741C22.8974 66.021 19.7117 66.4406 16.7211 65.6409C13.7305 64.8411 11.1795 62.8873 9.62817 60.2084L9.16692 59.4055L8.70567 58.6231C7.93817 57.2949 7.4401 55.8284 7.23998 54.3075C7.03985 52.7866 7.1416 51.2411 7.53939 49.7596C7.93719 48.2781 8.62322 46.8895 9.55824 45.6734C10.4933 44.4573 11.6589 43.4375 12.9885 42.6724L15.8875 40.9982L20.4607 43.6444L15.5134 46.4939C14.6628 46.9829 13.917 47.6348 13.3185 48.4122C12.72 49.1896 12.2807 50.0774 12.0255 51.0248C11.7704 51.9721 11.7045 52.9605 11.8317 53.9333C11.9588 54.9061 12.2764 55.8444 12.7664 56.6944L13.3472 57.7023C14.3384 59.421 15.9715 60.6757 17.8876 61.1905C19.8036 61.7053 21.8457 61.4381 23.5648 60.4476L28.4096 57.6493L32.9486 55.0219L39.7717 51.0825L39.7888 51.0996C40.5405 50.6554 41.4613 50.6554 42.2112 51.0996H42.2283L49.0514 55.0407Z" stroke="#8A96FF" stroke-linecap="round" stroke-linejoin="round"/>
<path d="M69.2166 56.7115L68.6357 57.7365C67.639 59.4448 66.0064 60.6889 64.0949 61.197C62.1835 61.705 60.1487 61.4356 58.4353 60.4476L53.5904 57.6494V50.4334C53.5904 49.0684 54.325 47.823 55.5004 47.1414L61.5393 43.6444L66.4866 46.4939C67.3372 46.9852 68.0826 47.6392 68.6802 48.4188C69.2778 49.1983 69.7159 50.0879 69.9695 51.0369C70.223 51.9858 70.287 52.9754 70.1578 53.9491C70.0286 54.9228 69.7088 55.8615 69.2166 56.7115M28.4096 50.4334V57.6494L23.5648 60.4476C21.8455 61.438 19.8033 61.705 17.8872 61.1898C15.9711 60.6747 14.3381 59.4196 13.3472 57.7006L12.7664 56.6944C12.2764 55.8444 11.9588 54.9062 11.8317 53.9333C11.7045 52.9605 11.7704 51.9721 12.0256 51.0248C12.2807 50.0774 12.72 49.1897 13.3185 48.4122C13.917 47.6348 14.6628 46.9829 15.5134 46.4939L20.4607 43.6444L26.4997 47.1414C27.0787 47.4745 27.56 47.954 27.8952 48.5318C28.2304 49.1096 28.4078 49.7654 28.4096 50.4334ZM39.0901 25.3226L32.9486 21.7744V16.3145C32.9484 15.3333 33.1415 14.3617 33.5168 13.4552C33.8921 12.5486 34.4424 11.7248 35.1361 11.031C35.8298 10.3371 36.6535 9.78665 37.5599 9.41111C38.4664 9.03557 39.438 8.84229 40.4192 8.84229H41.5979C43.577 8.84545 45.4738 9.63432 46.8715 11.0355C48.2691 12.4367 49.0532 14.3355 49.0514 16.3145V21.7744L42.9099 25.3226C41.7329 26.0059 40.2671 26.0059 39.0884 25.3226H39.0901ZM56.9678 40.9999L50.2797 44.8557C49.5126 45.2998 49.0514 46.101 49.0514 46.9706V55.0407L42.2283 51.0996H42.2112C41.4596 50.6554 40.5388 50.6554 39.7888 51.0996L39.7717 51.0825L32.9486 55.0237V46.9706C32.9486 46.0993 32.4874 45.2998 31.7186 44.8557L25.0339 40.9999L31.7221 37.1442C32.4908 36.7001 32.9504 35.8989 32.9504 35.0293V26.9745L39.7734 30.9157L39.7905 30.8986C40.5422 31.3427 41.463 31.3427 42.2129 30.8986L42.23 30.9157L49.0531 26.9745V35.0276C49.0531 35.8989 49.5144 36.7001 50.2831 37.1425L56.9678 40.9999Z" stroke="#8A96FF" stroke-linecap="round" stroke-linejoin="round"/>
<path d="M69.2166 56.7115L68.6357 57.7365C67.639 59.4448 66.0064 60.6889 64.0949 61.197C62.1835 61.705 60.1487 61.4356 58.4353 60.4476L53.5904 57.6494V50.4334C53.5904 49.0684 54.325 47.823 55.5004 47.1414L61.5393 43.6444L66.4866 46.4939C67.3372 46.9852 68.0826 47.6392 68.6802 48.4188C69.2778 49.1983 69.7159 50.0879 69.9695 51.0369C70.223 51.9858 70.287 52.9754 70.1578 53.9491C70.0286 54.9228 69.7088 55.8615 69.2166 56.7115M28.4096 50.4334V57.6494L23.5648 60.4476C21.8455 61.438 19.8033 61.705 17.8872 61.1898C15.9711 60.6747 14.3381 59.4196 13.3472 57.7006L12.7664 56.6944C12.2764 55.8444 11.9588 54.9062 11.8317 53.9333C11.7045 52.9605 11.7704 51.9721 12.0256 51.0248C12.2807 50.0774 12.72 49.1897 13.3185 48.4122C13.917 47.6348 14.6628 46.9829 15.5134 46.4939L20.4607 43.6444L26.4997 47.1414C27.0787 47.4745 27.56 47.954 27.8952 48.5318C28.2304 49.1096 28.4078 49.7654 28.4096 50.4334ZM39.0901 25.3226L32.9486 21.7744V16.3145C32.9484 15.3333 33.1415 14.3617 33.5168 13.4552C33.8921 12.5486 34.4424 11.7248 35.1361 11.031C35.8298 10.3371 36.6535 9.78665 37.5599 9.41111C38.4664 9.03557 39.438 8.84229 40.4192 8.84229H41.5979C43.577 8.84545 45.4738 9.63432 46.8715 11.0355C48.2691 12.4367 49.0532 14.3355 49.0514 16.3145V21.7744L42.9099 25.3226C41.7329 26.0059 40.2671 26.0059 39.0884 25.3226H39.0901ZM56.9678 40.9999L50.2797 44.8557C49.5126 45.2998 49.0514 46.101 49.0514 46.9706V55.0407L42.2283 51.0996H42.2112C41.4596 50.6554 40.5388 50.6554 39.7888 51.0996L39.7717 51.0825L32.9486 55.0237V46.9706C32.9486 46.0993 32.4874 45.2998 31.7186 44.8557L25.0339 40.9999L31.7221 37.1442C32.4908 36.7001 32.9504 35.8989 32.9504 35.0293V26.9745L39.7734 30.9157L39.7905 30.8986C40.5422 31.3427 41.463 31.3427 42.2129 30.8986L42.23 30.9157L49.0531 26.9745V35.0276C49.0531 35.8989 49.5144 36.7001 50.2831 37.1425L56.9678 40.9999Z" stroke="#8A96FF" stroke-linecap="round" stroke-linejoin="round"/>
<path d="M32.9486 46.9706V55.0237L28.4096 57.6494V50.4334C28.4096 49.0685 27.675 47.8231 26.4997 47.1415L20.4607 43.6445L15.8875 41L12.9867 39.3276C11.6575 38.5623 10.4923 37.5425 9.55757 36.3264C8.62287 35.1104 7.9371 33.722 7.53948 32.2407C7.14185 30.7593 7.04019 29.2142 7.2403 27.6935C7.4404 26.1729 7.93835 24.7066 8.70566 23.3786L9.16691 22.5927L9.62646 21.7898C11.1781 19.1112 13.7292 17.1578 16.7198 16.3583C19.7103 15.5589 22.8959 15.9788 25.5772 17.5258L28.4079 19.1641V24.3506L23.563 21.5523C21.8438 20.562 19.8015 20.295 17.8855 20.8101C15.9694 21.3253 14.3364 22.5804 13.3455 24.2993L12.7647 25.3056C12.2747 26.1555 11.9571 27.0938 11.8299 28.0666C11.7028 29.0395 11.7687 30.0278 12.0238 30.9752C12.279 31.9225 12.7183 32.8103 13.3168 33.5877C13.9153 34.3652 14.6611 35.017 15.5117 35.506L20.459 38.3555L25.0322 41L31.7203 44.8557C32.4891 45.2999 32.9486 46.1011 32.9486 46.9706Z" stroke="#8A96FF" stroke-linecap="round" stroke-linejoin="round"/>
<path d="M26.4997 34.8755L20.4607 38.3554L15.5134 35.5059C14.6628 35.0169 13.917 34.3651 13.3185 33.5876C12.72 32.8102 12.2807 31.9224 12.0256 30.975C11.7704 30.0277 11.7045 29.0393 11.8317 28.0665C11.9588 27.0937 12.2764 26.1554 12.7664 25.3054L13.3472 24.2975C14.3384 22.5788 15.9715 21.3241 17.8876 20.8093C19.8036 20.2945 21.8457 20.5617 23.5648 21.5522L28.4096 24.3505V31.5665C28.4096 32.9314 27.675 34.1922 26.4997 34.8755ZM61.5393 43.6444L55.5003 47.1413C54.9213 47.4744 54.4401 47.9539 54.1048 48.5317C53.7696 49.1095 53.5922 49.7653 53.5904 50.4333V66.0594C53.5913 67.592 53.2902 69.1097 52.7041 70.5259C52.1181 71.942 51.2587 73.2287 50.1751 74.3125C49.0915 75.3963 47.8049 76.2559 46.3888 76.8421C44.9728 77.4283 43.4551 77.7297 41.9225 77.7291H40.0946C36.9961 77.7272 34.025 76.4956 31.8341 74.3046C29.6431 72.1136 28.4114 69.1426 28.4096 66.0441V62.8358L32.9486 60.2255V65.6853C32.9484 66.6666 33.1415 67.6384 33.517 68.5451C33.8924 69.4517 34.4428 70.2756 35.1367 70.9695C35.8306 71.6634 36.6544 72.2138 37.5611 72.5892C38.4678 72.9647 39.4396 73.1578 40.4209 73.1576H41.5979C43.577 73.1544 45.4738 72.3655 46.8715 70.9643C48.2691 69.5632 49.0532 67.6644 49.0514 65.6853V46.9705C49.0514 46.0993 49.5126 45.2998 50.2814 44.8556L56.9661 40.9999L61.5393 43.6444Z" stroke="#8A96FF" stroke-linecap="round" stroke-linejoin="round"/>
<path d="M42.9099 56.6774L49.0514 60.2257V65.6855C49.0532 67.6649 48.2688 69.5639 46.8708 70.9651C45.4728 72.3664 43.5756 73.155 41.5962 73.1577H40.4191C39.438 73.1577 38.4664 72.9644 37.5599 72.5889C36.6534 72.2134 35.8298 71.6629 35.1361 70.9691C34.4423 70.2752 33.8921 69.4514 33.5168 68.5449C33.1414 67.6383 32.9484 66.6667 32.9486 65.6855V60.2257L39.0901 56.6774C39.6739 56.3507 40.3318 56.1791 41.0008 56.1791C41.6699 56.1791 42.3261 56.3507 42.9099 56.6774ZM69.0115 39.3276L66.1125 41.0001L61.5393 38.3556L66.4866 35.5061C67.3372 35.0148 68.0826 34.3608 68.6802 33.5813C69.2778 32.8018 69.7159 31.9121 69.9694 30.9632C70.223 30.0142 70.287 29.0246 70.1578 28.0509C70.0286 27.0772 69.7087 26.1385 69.2165 25.2885L68.6357 24.2806C68.1451 23.4316 67.4922 22.6876 66.714 22.091C65.9359 21.4944 65.0478 21.0569 64.1006 20.8036C63.1534 20.5502 62.1655 20.4859 61.1934 20.6144C60.2213 20.7429 59.2841 21.0616 58.4352 21.5524L53.5904 24.3507L49.0514 26.9781L42.2283 30.9175L42.2112 30.9004C41.4595 31.3446 40.5387 31.3446 39.7888 30.9004L39.7717 30.9175L32.9486 26.9781V21.7745L39.0901 25.3227C40.2671 26.006 41.7346 26.006 42.9116 25.3227L49.0531 21.7745L53.5904 19.1642L56.4228 17.5259C59.1043 15.979 62.29 15.5594 65.2806 16.3591C68.2711 17.1589 70.8222 19.1127 72.3735 21.7916L72.8348 22.5945L73.2943 23.3786C74.0618 24.7068 74.5599 26.1733 74.76 27.6942C74.9601 29.2151 74.8584 30.7606 74.4606 32.2421C74.0628 33.7236 73.3768 35.1122 72.4417 36.3283C71.5067 37.5444 70.3411 38.5625 69.0115 39.3276Z" stroke="#8A96FF" stroke-linecap="round" stroke-linejoin="round"/>
<path d="M50.2797 37.1442L56.9678 40.9999L50.2797 44.8556C49.5126 45.2998 49.0514 46.101 49.0514 46.9705V55.0407L42.2283 51.0995H42.2112C41.4596 50.6554 40.5388 50.6554 39.7888 51.0995L39.7717 51.0825L32.9486 55.0236V46.9705C32.9486 46.0993 32.4874 45.2998 31.7186 44.8556L25.0339 40.9999L31.7221 37.1442C32.4908 36.7 32.9504 35.8988 32.9504 35.0293V26.9745L39.7734 30.9156L39.7905 30.8985C40.5422 31.3427 41.463 31.3427 42.2129 30.8985L42.23 30.9156L49.0531 26.9745V35.0275C49.0531 35.8988 49.5144 36.7 50.2831 37.1425M66.4883 35.5076L61.5393 38.3554L55.5003 34.8755C54.92 34.5396 54.4381 34.0572 54.1029 33.4764C53.7677 32.8956 53.591 32.237 53.5904 31.5665V24.3505L58.4353 21.5522C59.2842 21.0615 60.2216 20.7429 61.1937 20.6145C62.1659 20.4862 63.1538 20.5506 64.101 20.8041C65.0483 21.0576 65.9363 21.4952 66.7144 22.092C67.4924 22.6888 68.1453 23.433 68.6357 24.2821L69.2166 25.2883C69.709 26.1384 70.0291 27.0772 70.1584 28.0511C70.2878 29.025 70.2238 30.0148 69.9703 30.9639C69.7167 31.9131 69.2786 32.8029 68.6808 33.5826C68.083 34.3622 67.3391 35.0164 66.4883 35.5076ZM28.4096 24.3505V31.5665C28.4096 32.9314 27.675 34.1922 26.4997 34.8755L20.4607 38.3554L15.5134 35.5059C14.6628 35.0169 13.917 34.365 13.3185 33.5876C12.72 32.8102 12.2807 31.9224 12.0256 30.975C11.7704 30.0277 11.7045 29.0393 11.8317 28.0665C11.9588 27.0937 12.2764 26.1554 12.7664 25.3054L13.3472 24.2975C14.3384 22.5788 15.9715 21.3241 17.8876 20.8093C19.8036 20.2945 21.8457 20.5617 23.5648 21.5522L28.4096 24.3505ZM49.0514 60.2255V65.6853C49.0532 67.6647 48.2689 69.5637 46.8709 70.9649C45.4728 72.3662 43.5756 73.1548 41.5962 73.1575H40.4192C39.438 73.1575 38.4664 72.9643 37.5599 72.5887C36.6535 72.2132 35.8298 71.6628 35.1361 70.9689C34.4424 70.275 33.8921 69.4512 33.5168 68.5447C33.1415 67.6381 32.9484 66.6665 32.9486 65.6853V60.2255L39.0901 56.6772C39.6739 56.3505 40.3318 56.1789 41.0009 56.1789C41.6699 56.1789 42.3278 56.3505 42.9116 56.6772L49.0514 60.2255Z" stroke="#8A96FF" stroke-linecap="round" stroke-linejoin="round"/>
<path d="M73.2943 58.6232L72.8331 59.4073L72.3718 60.2102C70.8202 62.8888 68.2691 64.8422 65.2785 65.6417C62.288 66.4411 59.1024 66.0212 56.4211 64.4742L53.5904 62.8359V57.6494L58.4353 60.4477C60.1489 61.4355 62.1839 61.7046 64.0953 61.1963C66.0068 60.6879 67.6392 59.4434 68.6357 57.7348L69.2166 56.7115C69.7088 55.8615 70.0286 54.9229 70.1578 53.9492C70.287 52.9755 70.223 51.9859 69.9695 51.0369C69.7159 50.088 69.2778 49.1983 68.6802 48.4188C68.0826 47.6393 67.3372 46.9852 66.4866 46.494L61.5393 43.6445L56.9678 41L50.2797 37.1443C49.9071 36.9308 49.5975 36.6229 49.3818 36.2516C49.1662 35.8803 49.0522 35.4587 49.0514 35.0294V26.9746L53.5904 24.3489V31.5649C53.5904 32.9298 54.325 34.1906 55.5003 34.8739L61.5393 38.3538L66.1125 41L69.0133 42.6725C70.3426 43.4376 71.5081 44.4573 72.4429 45.6733C73.3778 46.8893 74.0637 48.2776 74.4615 49.759C74.8593 51.2403 74.9611 52.7855 74.7611 54.3062C74.5611 55.827 74.0633 57.2933 73.2961 58.6215L73.2943 58.6232Z" stroke="#8A96FF" stroke-linecap="round" stroke-linejoin="round"/>
<path d="M56.9678 40.9999L50.2797 44.8556C49.5126 45.2998 49.0514 46.101 49.0514 46.9705V55.0407L42.2283 51.0995H42.2112C41.4596 50.6554 40.5388 50.6554 39.7888 51.0995L39.7717 51.0825L32.9486 55.0236V46.9705C32.9486 46.0993 32.4874 45.2998 31.7186 44.8556L25.0339 40.9999L31.7221 37.1442C32.4908 36.7 32.9504 35.8988 32.9504 35.0293V26.9745L39.7734 30.9156L39.7905 30.8985C40.5422 31.3427 41.463 31.3427 42.2129 30.8985L42.23 30.9156L49.0531 26.9745V35.0275C49.0531 35.8988 49.5144 36.7 50.2831 37.1425L56.9678 40.9999ZM66.4884 35.5076L61.5393 38.3554L55.5004 34.8755C54.92 34.5396 54.4381 34.0572 54.1029 33.4764C53.7677 32.8956 53.591 32.237 53.5904 31.5665V24.3505L58.4353 21.5522C59.2843 21.0615 60.2216 20.7429 61.1937 20.6145C62.1659 20.4862 63.1538 20.5506 64.101 20.8041C65.0483 21.0576 65.9363 21.4952 66.7144 22.092C67.4924 22.6888 68.1453 23.433 68.6357 24.2821L69.2166 25.2883C69.709 26.1384 70.0291 27.0772 70.1584 28.0511C70.2878 29.025 70.2238 30.0148 69.9703 30.9639C69.7167 31.9131 69.2786 32.8029 68.6808 33.5826C68.083 34.3622 67.3391 35.0164 66.4884 35.5076Z" stroke="#8A96FF" stroke-linecap="round" stroke-linejoin="round"/>
<path d="M41 42.2812C41.7076 42.2812 42.2812 41.7076 42.2812 41C42.2812 40.2924 41.7076 39.7188 41 39.7188C40.2924 39.7188 39.7188 40.2924 39.7188 41C39.7188 41.7076 40.2924 42.2812 41 42.2812Z" fill="#8A96FF"/>
</svg>
