<svg width="21" height="21" viewBox="0 0 21 21" fill="none" xmlns="http://www.w3.org/2000/svg">
<path d="M7.91574 13.9025V7.40898C7.91588 7.32774 7.93786 7.24803 7.97939 7.1782C8.02092 7.10837 8.08047 7.051 8.15179 7.01209C8.22312 6.97319 8.30359 6.95419 8.38479 6.95707C8.46598 6.95996 8.5449 6.98463 8.61328 7.02851L13.6646 10.2743C13.7285 10.3153 13.7812 10.3717 13.8176 10.4384C13.8541 10.505 13.8732 10.5798 13.8732 10.6557C13.8732 10.7317 13.8541 10.8064 13.8176 10.8731C13.7812 10.9397 13.7285 10.9961 13.6646 11.0371L8.61328 14.2839C8.5449 14.3277 8.46598 14.3524 8.38479 14.3553C8.30359 14.3582 8.22312 14.3392 8.15179 14.3003C8.08047 14.2614 8.02092 14.204 7.97939 14.1342C7.93786 14.0643 7.91588 13.9846 7.91574 13.9034V13.9025Z" fill="#CCCCCC"/>
<path d="M0.215668 10.6556C0.215668 5.15223 4.67723 0.690674 10.1806 0.690674C15.6839 0.690674 20.1455 5.15223 20.1455 10.6556C20.1455 16.1589 15.6839 20.6205 10.1806 20.6205C4.67723 20.6205 0.215668 16.1589 0.215668 10.6556ZM10.1806 2.04952C7.8981 2.04952 5.70912 2.95623 4.09517 4.57018C2.48122 6.18413 1.57452 8.37311 1.57452 10.6556C1.57452 12.938 2.48122 15.127 4.09517 16.741C5.70912 18.3549 7.8981 19.2616 10.1806 19.2616C12.463 19.2616 14.652 18.3549 16.266 16.741C17.8799 15.127 18.7866 12.938 18.7866 10.6556C18.7866 8.37311 17.8799 6.18413 16.266 4.57018C14.652 2.95623 12.463 2.04952 10.1806 2.04952Z" fill="#CCCCCC"/>
</svg>
