<svg width="40" height="40" viewBox="0 0 40 35" fill="none" xmlns="http://www.w3.org/2000/svg">
<path d="M5.40625 26.9998C5.36198 26.5544 5.16536 26.2003 4.81641 25.9373C4.46745 25.6742 4.02865 25.5427 3.5 25.5427C3.1276 25.5427 2.79948 25.6065 2.51563 25.7341C2.23438 25.8617 2.01302 26.0388 1.85156 26.2654C1.69271 26.4893 1.61328 26.7445 1.61328 27.031C1.61328 27.2419 1.65885 27.4268 1.75 27.5857C1.84115 27.7445 1.96354 27.8813 2.11719 27.9958C2.27344 28.1078 2.44531 28.2042 2.63281 28.2849C2.82292 28.3656 3.01432 28.4333 3.20703 28.488L4.05078 28.7302C4.30599 28.8005 4.5612 28.8904 4.81641 28.9998C5.07161 29.1091 5.30469 29.2472 5.51563 29.4138C5.72917 29.5779 5.89974 29.7797 6.02734 30.0193C6.15755 30.2563 6.22266 30.5414 6.22266 30.8748C6.22266 31.3018 6.11198 31.686 5.89063 32.0271C5.66927 32.3682 5.35156 32.6391 4.9375 32.8396C4.52344 33.0375 4.02734 33.1365 3.44922 33.1365C2.90495 33.1365 2.43229 33.0466 2.03125 32.8669C1.63021 32.6847 1.3151 32.4333 1.08594 32.113C0.856771 31.7927 0.727865 31.4216 0.699219 30.9998H1.44922C1.47526 31.3149 1.57943 31.5818 1.76172 31.8005C1.94401 32.0193 2.18099 32.186 2.47266 32.3005C2.76432 32.4125 3.08984 32.4685 3.44922 32.4685C3.84766 32.4685 4.20182 32.4021 4.51172 32.2693C4.82422 32.1339 5.06901 31.9464 5.24609 31.7068C5.42578 31.4646 5.51563 31.1833 5.51563 30.863C5.51563 30.5922 5.44531 30.3656 5.30469 30.1833C5.16406 29.9985 4.96745 29.8435 4.71484 29.7185C4.46484 29.5935 4.17448 29.4828 3.84375 29.3865L2.88672 29.1052C2.25911 28.9177 1.77214 28.6586 1.42578 28.3279C1.07943 27.9972 0.90625 27.5753 0.90625 27.0623C0.90625 26.6326 1.02083 26.255 1.25 25.9294C1.48177 25.6013 1.79427 25.3461 2.1875 25.1638C2.58333 24.9789 3.02734 24.8865 3.51953 24.8865C4.01693 24.8865 4.45703 24.9776 4.83984 25.1599C5.22266 25.3422 5.52604 25.5935 5.75 25.9138C5.97656 26.2315 6.09766 26.5935 6.11328 26.9998H5.40625ZM11.6484 30.7068V26.9998H12.3438V32.9998H11.6484V32.0037H11.5938C11.4531 32.311 11.2305 32.5675 10.9258 32.7732C10.6211 32.9763 10.2487 33.0779 9.80859 33.0779C9.42578 33.0779 9.08594 32.9945 8.78906 32.8279C8.49219 32.6586 8.25911 32.4112 8.08984 32.0857C7.92057 31.7602 7.83594 31.3604 7.83594 30.8865V26.9998H8.53125V30.8435C8.53125 31.3123 8.66927 31.6899 8.94531 31.9763C9.22135 32.2602 9.57552 32.4021 10.0078 32.4021C10.2786 32.4021 10.5391 32.337 10.7891 32.2068C11.0391 32.0766 11.2448 31.8865 11.4063 31.6365C11.5677 31.3839 11.6484 31.074 11.6484 30.7068ZM14.3291 32.9998V24.9998H15.0283V28.1443H15.0908C15.1689 27.9646 15.2809 27.7797 15.4268 27.5896C15.5752 27.3995 15.7692 27.2406 16.0088 27.113C16.251 26.9828 16.5557 26.9177 16.9229 26.9177C17.415 26.9177 17.8473 27.0479 18.2197 27.3083C18.5921 27.5662 18.8825 27.9281 19.0908 28.3943C19.2992 28.8578 19.4033 29.3982 19.4033 30.0154C19.4033 30.6352 19.2992 31.1781 19.0908 31.6443C18.8851 32.1104 18.596 32.4737 18.2236 32.7341C17.8538 32.9945 17.4242 33.1248 16.9346 33.1248C16.57 33.1248 16.2653 33.0597 16.0205 32.9294C15.7783 32.7992 15.583 32.6391 15.4346 32.449C15.2861 32.2563 15.1715 32.0688 15.0908 31.8865H15.0049V32.9998H14.3291ZM15.0166 30.0037C15.0166 30.488 15.0882 30.9177 15.2314 31.2927C15.3773 31.6651 15.5856 31.9581 15.8564 32.1716C16.1299 32.3826 16.4606 32.488 16.8486 32.488C17.2471 32.488 17.5843 32.3787 17.8604 32.1599C18.1364 31.9386 18.346 31.6404 18.4893 31.2654C18.6325 30.8904 18.7041 30.4698 18.7041 30.0037C18.7041 29.5427 18.6325 29.1274 18.4893 28.7576C18.3486 28.3878 18.1403 28.0948 17.8643 27.8787C17.5882 27.6599 17.2497 27.5505 16.8486 27.5505C16.458 27.5505 16.126 27.656 15.8525 27.8669C15.5817 28.0753 15.3747 28.3643 15.2314 28.7341C15.0882 29.1013 15.0166 29.5245 15.0166 30.0037ZM23.2939 26.9998V27.6052H20.4307V26.9998H23.2939ZM21.3252 25.5623H22.0244V31.4333C22.0244 31.6833 22.0674 31.88 22.1533 32.0232C22.2393 32.1638 22.3512 32.2641 22.4893 32.324C22.6273 32.3813 22.7744 32.4099 22.9307 32.4099C23.0218 32.4099 23.0999 32.4047 23.165 32.3943C23.2301 32.3813 23.2874 32.3682 23.3369 32.3552L23.4854 32.9841C23.4176 33.0102 23.3343 33.0336 23.2354 33.0544C23.1364 33.0779 23.014 33.0896 22.8682 33.0896C22.613 33.0896 22.3669 33.0336 22.1299 32.9216C21.8955 32.8097 21.7028 32.643 21.5518 32.4216C21.4007 32.2003 21.3252 31.9255 21.3252 31.5974V25.5623ZM24.8809 32.9998V26.9998H25.5801V32.9998H24.8809ZM25.2363 25.9685C25.0931 25.9685 24.9707 25.9203 24.8691 25.824C24.7676 25.725 24.7168 25.6065 24.7168 25.4685C24.7168 25.3305 24.7676 25.2133 24.8691 25.1169C24.9707 25.018 25.0931 24.9685 25.2363 24.9685C25.3796 24.9685 25.502 25.018 25.6035 25.1169C25.7051 25.2133 25.7559 25.3305 25.7559 25.4685C25.7559 25.6065 25.7051 25.725 25.6035 25.824C25.502 25.9203 25.3796 25.9685 25.2363 25.9685ZM29.7822 26.9998V27.6052H26.9189V26.9998H29.7822ZM27.8135 25.5623H28.5127V31.4333C28.5127 31.6833 28.5557 31.88 28.6416 32.0232C28.7275 32.1638 28.8395 32.2641 28.9775 32.324C29.1156 32.3813 29.2627 32.4099 29.4189 32.4099C29.5101 32.4099 29.5882 32.4047 29.6533 32.3943C29.7184 32.3813 29.7757 32.3682 29.8252 32.3552L29.9736 32.9841C29.9059 33.0102 29.8226 33.0336 29.7236 33.0544C29.6247 33.0779 29.5023 33.0896 29.3564 33.0896C29.1012 33.0896 28.8551 33.0336 28.6182 32.9216C28.3838 32.8097 28.1911 32.643 28.04 32.4216C27.889 32.2003 27.8135 31.9255 27.8135 31.5974V25.5623ZM32.1855 24.9998V32.9998H31.4902V24.9998H32.1855ZM36.4512 33.1248C35.8913 33.1248 35.4069 32.9945 34.998 32.7341C34.5892 32.4711 34.2728 32.1078 34.0488 31.6443C33.8275 31.1781 33.7168 30.6417 33.7168 30.0349C33.7168 29.4307 33.8275 28.8943 34.0488 28.4255C34.2728 27.9542 34.5814 27.5857 34.9746 27.3201C35.3704 27.0518 35.8275 26.9177 36.3457 26.9177C36.6712 26.9177 36.985 26.9776 37.2871 27.0974C37.5892 27.2146 37.86 27.3956 38.0996 27.6404C38.3418 27.8826 38.5332 28.1886 38.6738 28.5583C38.8145 28.9255 38.8848 29.3604 38.8848 29.863V30.2068H34.1973V29.5935H38.1738C38.1738 29.2081 38.0957 28.8617 37.9395 28.5544C37.7858 28.2445 37.571 27.9998 37.2949 27.8201C37.0215 27.6404 36.7051 27.5505 36.3457 27.5505C35.9655 27.5505 35.6309 27.6521 35.3418 27.8552C35.0527 28.0583 34.8262 28.3266 34.6621 28.6599C34.5007 28.9932 34.4186 29.3578 34.416 29.7537V30.1208C34.416 30.5974 34.498 31.0141 34.6621 31.3708C34.8288 31.725 35.0645 31.9998 35.3691 32.1951C35.6738 32.3904 36.0345 32.488 36.4512 32.488C36.735 32.488 36.9837 32.4438 37.1973 32.3552C37.4134 32.2667 37.5944 32.1482 37.7402 31.9998C37.8887 31.8487 38.0007 31.6833 38.0762 31.5037L38.7363 31.7185C38.6452 31.9711 38.4954 32.2042 38.2871 32.4177C38.0814 32.6313 37.8236 32.8031 37.5137 32.9333C37.2064 33.061 36.8522 33.1248 36.4512 33.1248Z" fill="white"/>
<path d="M11 1.12476C11 0.826387 11.1279 0.540239 11.3557 0.329261C11.5834 0.118282 11.8922 -0.000244141 12.2143 -0.000244141H26.7857C27.1078 -0.000244141 27.4166 0.118282 27.6443 0.329261C27.8721 0.540239 28 0.826387 28 1.12476V3.37476C28 3.67312 27.8721 3.95927 27.6443 4.17025C27.4166 4.38123 27.1078 4.49976 26.7857 4.49976C26.4637 4.49976 26.1548 4.38123 25.9271 4.17025C25.6994 3.95927 25.5714 3.67312 25.5714 3.37476V2.24976H20.7143V15.7498H22.7381C23.0601 15.7498 23.369 15.8683 23.5967 16.0793C23.8244 16.2902 23.9524 16.5764 23.9524 16.8748C23.9524 17.1731 23.8244 17.4593 23.5967 17.6702C23.369 17.8812 23.0601 17.9998 22.7381 17.9998H16.2619C15.9399 17.9998 15.631 17.8812 15.4033 17.6702C15.1756 17.4593 15.0476 17.1731 15.0476 16.8748C15.0476 16.5764 15.1756 16.2902 15.4033 16.0793C15.631 15.8683 15.9399 15.7498 16.2619 15.7498H18.2857V2.24976H13.4286V3.37476C13.4286 3.67312 13.3006 3.95927 13.0729 4.17025C12.8452 4.38123 12.5363 4.49976 12.2143 4.49976C11.8922 4.49976 11.5834 4.38123 11.3557 4.17025C11.1279 3.95927 11 3.67312 11 3.37476V1.12476Z" fill="#CCCCCC"/>
</svg>
