<svg width="40" height="40" viewBox="0 0 32 36" fill="none" xmlns="http://www.w3.org/2000/svg">
<path d="M7.3 8V18H21.1V8H7.3ZM9.6 6V2C9.6 1.46957 9.84232 0.960859 10.2737 0.585786C10.705 0.210714 11.29 0 11.9 0L25.7 0C26.31 0 26.895 0.210714 27.3263 0.585786C27.7577 0.960859 28 1.46957 28 2V12C28 12.5304 27.7577 13.0391 27.3263 13.4142C26.895 13.7893 26.31 14 25.7 14H23.4V18C23.4 18.5304 23.1577 19.0391 22.7263 19.4142C22.295 19.7893 21.71 20 21.1 20H7.3C6.69 20 6.10499 19.7893 5.67365 19.4142C5.24232 19.0391 5 18.5304 5 18V8C5 7.46957 5.24232 6.96086 5.67365 6.58579C6.10499 6.21071 6.69 6 7.3 6H9.6ZM11.9 6H21.1C21.71 6 22.295 6.21071 22.7263 6.58579C23.1577 6.96086 23.4 7.46957 23.4 8V12H25.7V2H11.9V6ZM11.9 15C10.985 15 10.1075 14.6839 9.46048 14.1213C8.81348 13.5587 8.45 12.7956 8.45 12C8.45 11.2044 8.81348 10.4413 9.46048 9.87868C10.1075 9.31607 10.985 9 11.9 9C12.815 9 13.6925 9.31607 14.3395 9.87868C14.9865 10.4413 15.35 11.2044 15.35 12C15.35 12.7956 14.9865 13.5587 14.3395 14.1213C13.6925 14.6839 12.815 15 11.9 15ZM11.9 13C12.205 13 12.4975 12.8946 12.7132 12.7071C12.9288 12.5196 13.05 12.2652 13.05 12C13.05 11.7348 12.9288 11.4804 12.7132 11.2929C12.4975 11.1054 12.205 11 11.9 11C11.595 11 11.3025 11.1054 11.0868 11.2929C10.8712 11.4804 10.75 11.7348 10.75 12C10.75 12.2652 10.8712 12.5196 11.0868 12.7071C11.3025 12.8946 11.595 13 11.9 13ZM13.05 6C13.05 5.20435 13.4135 4.44129 14.0605 3.87868C14.7075 3.31607 15.585 3 16.5 3C17.415 3 18.2925 3.31607 18.9395 3.87868C19.5865 4.44129 19.95 5.20435 19.95 6H17.65C17.65 5.73478 17.5288 5.48043 17.3132 5.29289C17.0975 5.10536 16.805 5 16.5 5C16.195 5 15.9025 5.10536 15.6868 5.29289C15.4712 5.48043 15.35 5.73478 15.35 6H13.05ZM15.1936 19.518L13.2064 18.511L16.3401 13.838C16.6122 13.4322 16.99 13.0876 17.4431 12.832C17.8963 12.5763 18.4122 12.4168 18.9492 12.3662C19.4862 12.3156 20.0294 12.3754 20.535 12.5407C21.0406 12.706 21.4945 12.9723 21.8601 13.318L23.1113 14.502L21.4174 15.856L20.1673 14.672C20.0454 14.5568 19.8941 14.4681 19.7255 14.413C19.5569 14.358 19.3758 14.3381 19.1968 14.355C19.0178 14.372 18.8459 14.4252 18.6949 14.5105C18.5438 14.5958 18.418 14.7107 18.3273 14.846L15.1936 19.518ZM22.6824 6.548C23.3281 6.33129 24.034 6.28884 24.7079 6.4262C25.3818 6.56355 25.9924 6.87434 26.4601 7.318L27.7113 8.502L26.0174 9.856L24.7673 8.672C24.5976 8.51138 24.3721 8.40344 24.1252 8.36462C23.8784 8.3258 23.6237 8.35824 23.4 8.457V8C23.4 7.429 23.124 6.912 22.6824 6.548Z" fill="#CCCCCC"/>
<path d="M1.79297 25V33H1.0625V25H1.79297ZM3.77539 33V27H4.45117V27.9219H4.51367C4.63346 27.612 4.83268 27.3685 5.11133 27.1914C5.39258 27.0117 5.72982 26.9219 6.12305 26.9219C6.53711 26.9219 6.87695 27.0195 7.14258 27.2148C7.41081 27.4076 7.61133 27.6732 7.74414 28.0117H7.79492C7.93034 27.6784 8.15039 27.4141 8.45508 27.2187C8.76237 27.0208 9.13477 26.9219 9.57227 26.9219C10.1296 26.9219 10.5697 27.0977 10.8926 27.4492C11.2155 27.7982 11.377 28.3086 11.377 28.9805V33H10.6816V28.9805C10.6816 28.5065 10.5605 28.151 10.3184 27.9141C10.0762 27.6771 9.75716 27.5586 9.36133 27.5586C8.903 27.5586 8.55013 27.6992 8.30273 27.9805C8.05534 28.2617 7.93164 28.6185 7.93164 29.0508V33H7.2207V28.918C7.2207 28.5117 7.10742 28.1836 6.88086 27.9336C6.6543 27.6836 6.33529 27.5586 5.92383 27.5586C5.64779 27.5586 5.39909 27.6263 5.17773 27.7617C4.95898 27.8971 4.78581 28.0859 4.6582 28.3281C4.5332 28.5677 4.4707 28.8437 4.4707 29.1562V33H3.77539ZM14.8936 33.1367C14.5316 33.1367 14.2008 33.0664 13.9014 32.9258C13.6019 32.7826 13.3636 32.5768 13.1865 32.3086C13.0094 32.0378 12.9209 31.7096 12.9209 31.3242C12.9209 31.0273 12.9769 30.7773 13.0889 30.5742C13.2008 30.3711 13.3597 30.2044 13.5654 30.0742C13.7712 29.944 14.0146 29.8411 14.2959 29.7656C14.5771 29.6901 14.887 29.6315 15.2256 29.5898C15.5615 29.5482 15.8454 29.5117 16.0771 29.4805C16.3115 29.4492 16.4899 29.3997 16.6123 29.332C16.7347 29.2643 16.7959 29.1549 16.7959 29.0039V28.8633C16.7959 28.4544 16.6735 28.1328 16.4287 27.8984C16.1865 27.6615 15.8376 27.543 15.3818 27.543C14.9495 27.543 14.5967 27.638 14.3232 27.8281C14.0524 28.0182 13.8623 28.2422 13.7529 28.5L13.0928 28.2617C13.2282 27.9336 13.4157 27.6719 13.6553 27.4766C13.8949 27.2786 14.1631 27.1367 14.46 27.0508C14.7568 26.9622 15.0576 26.918 15.3623 26.918C15.5915 26.918 15.8298 26.9479 16.0771 27.0078C16.3271 27.0677 16.5589 27.1719 16.7725 27.3203C16.986 27.4661 17.1592 27.6706 17.292 27.9336C17.4248 28.194 17.4912 28.5247 17.4912 28.9258V33H16.7959V32.0508H16.7529C16.6696 32.2279 16.5459 32.3997 16.3818 32.5664C16.2178 32.7331 16.012 32.8698 15.7646 32.9766C15.5173 33.0833 15.2269 33.1367 14.8936 33.1367ZM14.9873 32.5C15.3571 32.5 15.6774 32.418 15.9482 32.2539C16.2191 32.0898 16.4274 31.8724 16.5732 31.6016C16.7217 31.3281 16.7959 31.0273 16.7959 30.6992V29.832C16.7438 29.8815 16.6566 29.9258 16.5342 29.9648C16.4144 30.0039 16.2751 30.0391 16.1162 30.0703C15.96 30.099 15.8037 30.1237 15.6475 30.1445C15.4912 30.1654 15.3506 30.1836 15.2256 30.1992C14.887 30.2409 14.598 30.306 14.3584 30.3945C14.1188 30.4831 13.9352 30.6055 13.8076 30.7617C13.68 30.9154 13.6162 31.1133 13.6162 31.3555C13.6162 31.7201 13.7464 32.0026 14.0068 32.2031C14.2673 32.401 14.5941 32.5 14.9873 32.5ZM21.6299 35.375C21.221 35.375 20.863 35.3216 20.5557 35.2148C20.2484 35.1107 19.9893 34.9674 19.7783 34.7852C19.5674 34.6029 19.4033 34.3984 19.2861 34.1719L19.8564 33.7969C19.9424 33.9479 20.057 34.0964 20.2002 34.2422C20.346 34.388 20.5348 34.5091 20.7666 34.6055C21.001 34.7018 21.2887 34.75 21.6299 34.75C22.1611 34.75 22.5895 34.6172 22.915 34.3516C23.2432 34.0859 23.4072 33.6732 23.4072 33.1133V31.7617H23.3447C23.264 31.944 23.1481 32.1263 22.9971 32.3086C22.846 32.4883 22.6481 32.638 22.4033 32.7578C22.1611 32.8776 21.8604 32.9375 21.501 32.9375C21.0218 32.9375 20.596 32.819 20.2236 32.582C19.8538 32.3451 19.5622 32.0065 19.3486 31.5664C19.1377 31.1237 19.0322 30.5964 19.0322 29.9844C19.0322 29.3776 19.1351 28.8437 19.3408 28.3828C19.5492 27.9219 19.8395 27.5625 20.2119 27.3047C20.5843 27.0469 21.0179 26.918 21.5127 26.918C21.8799 26.918 22.1846 26.9831 22.4268 27.1133C22.6689 27.2409 22.863 27.3997 23.0088 27.5898C23.1572 27.7799 23.2731 27.9648 23.3564 28.1445H23.4268V27H24.1064V33.1563C24.1064 33.6641 23.9984 34.082 23.7822 34.4102C23.5661 34.7383 23.2718 34.9805 22.8994 35.1367C22.527 35.2956 22.1038 35.375 21.6299 35.375ZM21.583 32.3008C21.9684 32.3008 22.2979 32.2083 22.5713 32.0234C22.8447 31.8359 23.0544 31.5677 23.2002 31.2187C23.346 30.8698 23.4189 30.4544 23.4189 29.9727C23.4189 29.5039 23.3473 29.0885 23.2041 28.7266C23.0609 28.362 22.8525 28.0755 22.5791 27.8672C22.3083 27.6562 21.9762 27.5508 21.583 27.5508C21.182 27.5508 20.8434 27.6589 20.5674 27.875C20.2913 28.0911 20.083 28.3828 19.9424 28.75C19.8018 29.1146 19.7314 29.5221 19.7314 29.9727C19.7314 30.431 19.8031 30.8359 19.9463 31.1875C20.0895 31.5365 20.2992 31.8099 20.5752 32.0078C20.8512 32.2031 21.1872 32.3008 21.583 32.3008ZM28.373 33.125C27.8132 33.125 27.3288 32.9948 26.9199 32.7344C26.5111 32.4714 26.1947 32.1081 25.9707 31.6445C25.7493 31.1784 25.6387 30.6419 25.6387 30.0352C25.6387 29.431 25.7493 28.8945 25.9707 28.4258C26.1947 27.9544 26.5033 27.5859 26.8965 27.3203C27.2923 27.0521 27.7493 26.918 28.2676 26.918C28.5931 26.918 28.9069 26.9779 29.209 27.0977C29.5111 27.2148 29.7819 27.3958 30.0215 27.6406C30.2637 27.8828 30.4551 28.1888 30.5957 28.5586C30.7363 28.9258 30.8066 29.3607 30.8066 29.8633V30.207H26.1191V29.5937H30.0957C30.0957 29.2083 30.0176 28.862 29.8613 28.5547C29.7077 28.2448 29.4928 28 29.2168 27.8203C28.9434 27.6406 28.627 27.5508 28.2676 27.5508C27.8874 27.5508 27.5527 27.6523 27.2637 27.8555C26.9746 28.0586 26.748 28.3268 26.584 28.6602C26.4225 28.9935 26.3405 29.3581 26.3379 29.7539V30.1211C26.3379 30.5977 26.4199 31.0143 26.584 31.3711C26.7507 31.7253 26.9863 32 27.291 32.1953C27.5957 32.3906 27.9564 32.4883 28.373 32.4883C28.6569 32.4883 28.9056 32.444 29.1191 32.3555C29.3353 32.2669 29.5163 32.1484 29.6621 32C29.8105 31.849 29.9225 31.6836 29.998 31.5039L30.6582 31.7187C30.5671 31.9714 30.4173 32.2044 30.209 32.418C30.0033 32.6315 29.7454 32.8034 29.4355 32.9336C29.1283 33.0612 28.7741 33.125 28.373 33.125Z" fill="white"/>
</svg>
