<svg width="40" height="40" viewBox="0 0 44 40" fill="none" xmlns="http://www.w3.org/2000/svg">
<path d="M3.40625 37H1.0625V29H3.54688C4.3099 29 4.96224 29.1589 5.50391 29.4766C6.04818 29.7943 6.46484 30.25 6.75391 30.8437C7.04297 31.4375 7.1875 32.1497 7.1875 32.9805C7.1875 33.819 7.03906 34.5391 6.74219 35.1406C6.44792 35.7396 6.01823 36.1992 5.45313 36.5195C4.89063 36.8398 4.20833 37 3.40625 37ZM1.79297 36.3437H3.36328C4.05078 36.3437 4.6263 36.2083 5.08984 35.9375C5.55339 35.6667 5.90104 35.2799 6.13281 34.7773C6.36458 34.2747 6.48047 33.6758 6.48047 32.9805C6.47786 32.2904 6.36328 31.6966 6.13672 31.1992C5.91276 30.7018 5.57943 30.3203 5.13672 30.0547C4.69661 29.7891 4.15234 29.6562 3.50391 29.6562H1.79297V36.3437ZM12.626 34.707V31H13.3213V37H12.626V36.0039H12.5713C12.4307 36.3112 12.208 36.5677 11.9033 36.7734C11.5986 36.9766 11.2262 37.0781 10.7861 37.0781C10.4033 37.0781 10.0635 36.9948 9.7666 36.8281C9.46973 36.6589 9.23665 36.4115 9.06738 36.0859C8.89811 35.7604 8.81348 35.3607 8.81348 34.8867V31H9.50879V34.8437C9.50879 35.3125 9.64681 35.6901 9.92285 35.9766C10.1989 36.2604 10.5531 36.4023 10.9854 36.4023C11.2562 36.4023 11.5166 36.3372 11.7666 36.207C12.0166 36.0768 12.2223 35.8867 12.3838 35.6367C12.5452 35.3841 12.626 35.0742 12.626 34.707ZM15.3066 37V29H16.0059V32.1445H16.0684C16.1465 31.9648 16.2585 31.7799 16.4043 31.5898C16.5527 31.3997 16.7467 31.2409 16.9863 31.1133C17.2285 30.9831 17.5332 30.918 17.9004 30.918C18.3926 30.918 18.8249 31.0482 19.1973 31.3086C19.5697 31.5664 19.86 31.9284 20.0684 32.3945C20.2767 32.8581 20.3809 33.3984 20.3809 34.0156C20.3809 34.6354 20.2767 35.1784 20.0684 35.6445C19.8626 36.1107 19.5736 36.474 19.2012 36.7344C18.8314 36.9948 18.4017 37.125 17.9121 37.125C17.5475 37.125 17.2428 37.0599 16.998 36.9297C16.7559 36.7995 16.5605 36.6393 16.4121 36.4492C16.2637 36.2565 16.1491 36.069 16.0684 35.8867H15.9824V37H15.3066ZM15.9941 34.0039C15.9941 34.4883 16.0658 34.918 16.209 35.293C16.3548 35.6654 16.5632 35.9583 16.834 36.1719C17.1074 36.3828 17.4382 36.4883 17.8262 36.4883C18.2246 36.4883 18.5618 36.3789 18.8379 36.1602C19.1139 35.9388 19.3236 35.6406 19.4668 35.2656C19.61 34.8906 19.6816 34.4701 19.6816 34.0039C19.6816 33.543 19.61 33.1276 19.4668 32.7578C19.3262 32.388 19.1178 32.0951 18.8418 31.8789C18.5658 31.6602 18.2272 31.5508 17.8262 31.5508C17.4355 31.5508 17.1035 31.6562 16.8301 31.8672C16.5592 32.0755 16.3522 32.3646 16.209 32.7344C16.0658 33.1016 15.9941 33.5247 15.9941 34.0039ZM22.0527 37V29H22.752V32.1445H22.8145C22.8926 31.9648 23.0046 31.7799 23.1504 31.5898C23.2988 31.3997 23.4928 31.2409 23.7324 31.1133C23.9746 30.9831 24.2793 30.918 24.6465 30.918C25.1387 30.918 25.571 31.0482 25.9434 31.3086C26.3158 31.5664 26.6061 31.9284 26.8145 32.3945C27.0228 32.8581 27.127 33.3984 27.127 34.0156C27.127 34.6354 27.0228 35.1784 26.8145 35.6445C26.6087 36.1107 26.3197 36.474 25.9473 36.7344C25.5775 36.9948 25.1478 37.125 24.6582 37.125C24.2936 37.125 23.9889 37.0599 23.7441 36.9297C23.502 36.7995 23.3066 36.6393 23.1582 36.4492C23.0098 36.2565 22.8952 36.069 22.8145 35.8867H22.7285V37H22.0527ZM22.7402 34.0039C22.7402 34.4883 22.8118 34.918 22.9551 35.293C23.1009 35.6654 23.3092 35.9583 23.5801 36.1719C23.8535 36.3828 24.1842 36.4883 24.5723 36.4883C24.9707 36.4883 25.3079 36.3789 25.584 36.1602C25.86 35.9388 26.0697 35.6406 26.2129 35.2656C26.3561 34.8906 26.4277 34.4701 26.4277 34.0039C26.4277 33.543 26.3561 33.1276 26.2129 32.7578C26.0723 32.388 25.8639 32.0951 25.5879 31.8789C25.3118 31.6602 24.9733 31.5508 24.5723 31.5508C24.1816 31.5508 23.8496 31.6562 23.5762 31.8672C23.3053 32.0755 23.0983 32.3646 22.9551 32.7344C22.8118 33.1016 22.7402 33.5247 22.7402 34.0039ZM28.6621 37V31H29.3613V37H28.6621ZM29.0176 29.9687C28.8743 29.9687 28.752 29.9206 28.6504 29.8242C28.5488 29.7253 28.498 29.6068 28.498 29.4687C28.498 29.3307 28.5488 29.2135 28.6504 29.1172C28.752 29.0182 28.8743 28.9687 29.0176 28.9687C29.1608 28.9687 29.2832 29.0182 29.3848 29.1172C29.4863 29.2135 29.5371 29.3307 29.5371 29.4687C29.5371 29.6068 29.4863 29.7253 29.3848 29.8242C29.2832 29.9206 29.1608 29.9687 29.0176 29.9687ZM31.8955 33.25V37H31.2002V31H31.876V31.9414H31.9385C32.0791 31.6341 32.2979 31.388 32.5947 31.2031C32.8942 31.0156 33.264 30.9219 33.7041 30.9219C34.1077 30.9219 34.4619 31.0065 34.7666 31.1758C35.0739 31.3424 35.3122 31.5885 35.4814 31.9141C35.6533 32.2396 35.7393 32.6393 35.7393 33.1133V37H35.0439V33.1562C35.0439 32.6641 34.9059 32.2747 34.6299 31.9883C34.3564 31.7018 33.9893 31.5586 33.5283 31.5586C33.2132 31.5586 32.9333 31.6263 32.6885 31.7617C32.4437 31.8971 32.2497 32.0924 32.1064 32.3477C31.9658 32.6003 31.8955 32.901 31.8955 33.25ZM39.8594 39.375C39.4505 39.375 39.0924 39.3216 38.7852 39.2148C38.4779 39.1107 38.2188 38.9674 38.0078 38.7852C37.7969 38.6029 37.6328 38.3984 37.5156 38.1719L38.0859 37.7969C38.1719 37.9479 38.2865 38.0964 38.4297 38.2422C38.5755 38.388 38.7643 38.5091 38.9961 38.6055C39.2305 38.7018 39.5182 38.75 39.8594 38.75C40.3906 38.75 40.819 38.6172 41.1445 38.3516C41.4727 38.0859 41.6367 37.6732 41.6367 37.1133V35.7617H41.5742C41.4935 35.944 41.3776 36.1263 41.2266 36.3086C41.0755 36.4883 40.8776 36.638 40.6328 36.7578C40.3906 36.8776 40.0898 36.9375 39.7305 36.9375C39.2513 36.9375 38.8255 36.819 38.4531 36.582C38.0833 36.3451 37.7917 36.0065 37.5781 35.5664C37.3672 35.1237 37.2617 34.5964 37.2617 33.9844C37.2617 33.3776 37.3646 32.8437 37.5703 32.3828C37.7786 31.9219 38.069 31.5625 38.4414 31.3047C38.8138 31.0469 39.2474 30.918 39.7422 30.918C40.1094 30.918 40.4141 30.9831 40.6563 31.1133C40.8984 31.2409 41.0924 31.3997 41.2383 31.5898C41.3867 31.7799 41.5026 31.9648 41.5859 32.1445H41.6563V31H42.3359V37.1563C42.3359 37.6641 42.2279 38.082 42.0117 38.4102C41.7956 38.7383 41.5013 38.9805 41.1289 39.1367C40.7565 39.2956 40.3333 39.375 39.8594 39.375ZM39.8125 36.3008C40.1979 36.3008 40.5273 36.2083 40.8008 36.0234C41.0742 35.8359 41.2839 35.5677 41.4297 35.2187C41.5755 34.8698 41.6484 34.4544 41.6484 33.9727C41.6484 33.5039 41.5768 33.0885 41.4336 32.7266C41.2904 32.362 41.082 32.0755 40.8086 31.8672C40.5378 31.6562 40.2057 31.5508 39.8125 31.5508C39.4115 31.5508 39.0729 31.6589 38.7969 31.875C38.5208 32.0911 38.3125 32.3828 38.1719 32.75C38.0313 33.1146 37.9609 33.5221 37.9609 33.9727C37.9609 34.431 38.0326 34.8359 38.1758 35.1875C38.319 35.5365 38.5286 35.8099 38.8047 36.0078C39.0807 36.2031 39.4167 36.3008 39.8125 36.3008Z" fill="white"/>
<path d="M22 13.1429C21.248 13.1429 20.6156 12.8901 20.1027 12.3845C19.5898 11.879 19.3333 11.2555 19.3333 10.5143V2.62857C19.3333 1.88731 19.5898 1.2639 20.1027 0.758343C20.6156 0.252781 21.248 0 22 0C22.752 0 23.3844 0.252781 23.8973 0.758343C24.4102 1.2639 24.6667 1.88731 24.6667 2.62857V10.5143C24.6667 11.2555 24.4102 11.879 23.8973 12.3845C23.3844 12.8901 22.752 13.1429 22 13.1429ZM21.3333 23V18.3777C19.2444 18.1884 17.5 17.3464 16.1 15.8516C14.7 14.3568 14 12.5777 14 10.5143H15.3333C15.3333 12.3324 15.9836 13.8824 17.284 15.1642C18.5844 16.4461 20.1564 17.0866 22 17.0857C23.8436 17.0848 25.416 16.4439 26.7173 15.1629C28.0187 13.8819 28.6684 12.3324 28.6667 10.5143H30C30 12.5786 29.3 14.3581 27.9 15.8529C26.5 17.3477 24.7556 18.1888 22.6667 18.3763V23H21.3333Z" fill="#CCCCCC"/>
</svg>
