<svg width="40" height="40" viewBox="0 0 31 40" fill="none" xmlns="http://www.w3.org/2000/svg">
<path d="M1.0625 30H1.90625L4.80859 36.9688H4.87891L7.78125 30H8.625V38H7.9375V31.543H7.875L5.17578 38H4.51172L1.8125 31.543H1.75V38H1.0625V30ZM14.4199 35.707V32H15.1152V38H14.4199V37.0039H14.3652C14.2246 37.3112 14.002 37.5677 13.6973 37.7734C13.3926 37.9766 13.0202 38.0781 12.5801 38.0781C12.1973 38.0781 11.8574 37.9948 11.5605 37.8281C11.2637 37.6589 11.0306 37.4115 10.8613 37.0859C10.6921 36.7604 10.6074 36.3607 10.6074 35.8867V32H11.3027V35.8437C11.3027 36.3125 11.4408 36.6901 11.7168 36.9766C11.9928 37.2604 12.347 37.4023 12.7793 37.4023C13.0501 37.4023 13.3105 37.3372 13.5605 37.207C13.8105 37.0768 14.0163 36.8867 14.1777 36.6367C14.3392 36.3841 14.4199 36.0742 14.4199 35.707ZM20.9873 33.3164L20.3506 33.4961C20.2881 33.3164 20.1995 33.1536 20.085 33.0078C19.9704 32.862 19.8206 32.7461 19.6357 32.6602C19.4535 32.5742 19.2269 32.5312 18.9561 32.5312C18.5498 32.5312 18.2165 32.6276 17.9561 32.8203C17.6956 33.013 17.5654 33.2617 17.5654 33.5664C17.5654 33.8242 17.654 34.0339 17.8311 34.1953C18.0107 34.3542 18.2868 34.4805 18.6592 34.5742L19.5654 34.7969C20.068 34.9193 20.4443 35.1133 20.6943 35.3789C20.9469 35.6445 21.0732 35.9779 21.0732 36.3789C21.0732 36.7174 20.9795 37.0182 20.792 37.2812C20.6045 37.5443 20.3428 37.7513 20.0068 37.9023C19.6735 38.0508 19.2868 38.125 18.8467 38.125C18.2607 38.125 17.7777 37.9935 17.3975 37.7305C17.0173 37.4648 16.7738 37.082 16.667 36.582L17.335 36.418C17.4209 36.7747 17.5889 37.0443 17.8389 37.2266C18.0915 37.4089 18.4235 37.5 18.835 37.5C19.2959 37.5 19.6644 37.3971 19.9404 37.1914C20.2165 36.9831 20.3545 36.7227 20.3545 36.4102C20.3545 36.168 20.2738 35.9648 20.1123 35.8008C19.9508 35.6341 19.7061 35.5117 19.3779 35.4336L18.3975 35.1992C17.8766 35.0742 17.4912 34.8763 17.2412 34.6055C16.9912 34.3346 16.8662 33.9987 16.8662 33.5977C16.8662 33.2669 16.9561 32.9766 17.1357 32.7266C17.3154 32.474 17.5628 32.276 17.8779 32.1328C18.193 31.9896 18.5524 31.918 18.9561 31.918C19.5055 31.918 19.9443 32.043 20.2725 32.293C20.6032 32.5404 20.8415 32.8815 20.9873 33.3164ZM22.6035 38V32H23.3027V38H22.6035ZM22.959 30.9687C22.8158 30.9687 22.6934 30.9206 22.5918 30.8242C22.4902 30.7253 22.4395 30.6068 22.4395 30.4687C22.4395 30.3307 22.4902 30.2135 22.5918 30.1172C22.6934 30.0182 22.8158 29.9687 22.959 29.9687C23.1022 29.9687 23.2246 30.0182 23.3262 30.1172C23.4277 30.2135 23.4785 30.3307 23.4785 30.4687C23.4785 30.6068 23.4277 30.7253 23.3262 30.8242C23.2246 30.9206 23.1022 30.9687 22.959 30.9687ZM27.4854 38.125C26.9489 38.125 26.4814 37.9909 26.083 37.7227C25.6872 37.4544 25.3799 37.0872 25.1611 36.6211C24.9424 36.1549 24.833 35.6237 24.833 35.0273C24.833 34.4258 24.9437 33.8906 25.165 33.4219C25.389 32.9531 25.6989 32.5859 26.0947 32.3203C26.4906 32.0521 26.9502 31.918 27.4736 31.918C27.8747 31.918 28.238 31.9961 28.5635 32.1523C28.889 32.306 29.1572 32.5234 29.3682 32.8047C29.5817 33.0833 29.7158 33.4089 29.7705 33.7812H29.0674C28.9945 33.4427 28.8187 33.1536 28.54 32.9141C28.264 32.6719 27.9124 32.5508 27.4854 32.5508C27.1025 32.5508 26.764 32.6549 26.4697 32.8633C26.1755 33.069 25.945 33.3568 25.7783 33.7266C25.6143 34.0937 25.5322 34.5195 25.5322 35.0039C25.5322 35.4909 25.613 35.9219 25.7744 36.2969C25.9359 36.6693 26.1624 36.9609 26.4541 37.1719C26.7484 37.3828 27.0921 37.4883 27.4854 37.4883C27.751 37.4883 27.9932 37.4388 28.2119 37.3398C28.4333 37.2383 28.6182 37.0951 28.7666 36.9102C28.9176 36.7253 29.0192 36.5052 29.0713 36.25H29.7744C29.7223 36.612 29.5934 36.9349 29.3877 37.2188C29.1846 37.5 28.9202 37.7214 28.5947 37.8828C28.2718 38.0443 27.902 38.125 27.4854 38.125Z" fill="white"/>
<path d="M15.5005 2.33307V12.3069C14.3255 11.677 12.8756 11.432 11.3382 11.9336C9.66332 12.4936 8.3759 13.8818 8.07592 15.5149C7.93724 16.2497 7.98907 17.0049 8.22709 17.7172C8.4651 18.4296 8.88237 19.0784 9.44402 19.6094C10.0057 20.1404 10.6954 20.5383 11.4555 20.7696C12.2156 21.001 13.024 21.0592 13.8131 20.9393C16.2629 20.5777 18.0003 18.4779 18.0003 16.1565V4.66614H20.5002C21.8751 4.66614 23 3.61625 23 2.33307C23 1.04988 21.8751 0 20.5002 0H18.0003C16.6254 0 15.5005 1.04988 15.5005 2.33307Z" fill="#CCCCCC"/>
</svg>
